# xmcd
#
# Track frame offsets:
#	150
#	13632
#	26357
#
# Disc length: 571 seconds
#
# Revision: 1
# Processed by: cddbd v1.5.2PL0 Copyright (c) Steve Scherf et al.
# Submitted via: EasyCDDAExtractor 10.0.6.1
#
DISCID=15023903
DTITLE=Various Artist - CDX Vol.21 December
DYEAR=20061991
DGENRE=Country
TTITLE0=Highway 101 - Baby I'm Missing You
TTITLE1=Cleve Francis - Love Light
TTITLE2=Billy Dean - Only The Wind
EXTD=YEAR: 2006
EXTT0=
EXTT1=
EXTT2=
PLAYORDER=
